<svg width="300" height="120" viewBox="0 0 300 120" fill="none" xmlns="http://www.w3.org/2000/svg">
<path d="M30.4383 68.0652L31.1454 67.6608L30.5899 66.6896L29.8362 67.5165L30.4383 68.0652ZM27.0017 71.8359L26.3997 71.2872L26.1871 71.5204V71.8359H27.0017ZM27.0017 81V81.8146H27.8163V81H27.0017ZM18.6251 81H17.8106V81.8146H18.6251V81ZM18.6251 46.2527V45.4381H17.8106V46.2527H18.6251ZM27.0017 46.2527H27.8163V45.4381H27.0017V46.2527ZM27.0017 61.5739H26.1871V64.2888L27.6818 62.0224L27.0017 61.5739ZM29.9133 57.1589L29.2419 56.6976L29.2375 56.704L29.2332 56.7105L29.9133 57.1589ZM37.4068 46.2527V45.4381H36.9782L36.7355 45.7914L37.4068 46.2527ZM47.7642 46.2527L48.4115 46.7472L49.4117 45.4381H47.7642V46.2527ZM36.0227 61.6217L35.3754 61.1272L35.0381 61.5686L35.326 62.0438L36.0227 61.6217ZM47.7642 81V81.8146H49.2102L48.4609 80.5779L47.7642 81ZM37.8364 81L37.1293 81.4044L37.3639 81.8146H37.8364V81ZM29.8362 67.5165L26.3997 71.2872L27.6038 72.3846L31.0403 68.6139L29.8362 67.5165ZM26.1871 71.8359V81H27.8163V71.8359H26.1871ZM27.0017 80.1854H18.6251V81.8146H27.0017V80.1854ZM19.4397 81V46.2527H17.8106V81H19.4397ZM18.6251 47.0672H27.0017V45.4381H18.6251V47.0672ZM26.1871 46.2527V61.5739H27.8163V46.2527H26.1871ZM27.6818 62.0224L30.5933 57.6074L29.2332 56.7105L26.3217 61.1255L27.6818 62.0224ZM30.5846 57.6202L38.0782 46.714L36.7355 45.7914L29.2419 56.6976L30.5846 57.6202ZM37.4068 47.0672H47.7642V45.4381H37.4068V47.0672ZM47.1169 45.7581L35.3754 61.1272L36.67 62.1162L48.4115 46.7472L47.1169 45.7581ZM35.326 62.0438L47.0675 81.4221L48.4609 80.5779L36.7194 61.1995L35.326 62.0438ZM47.7642 80.1854H37.8364V81.8146H47.7642V80.1854ZM38.5435 80.5956L31.1454 67.6608L29.7312 68.4696L37.1293 81.4044L38.5435 80.5956ZM58.8137 81V81.8146H59.6283V81H58.8137ZM50.461 81H49.6464V81.8146H50.461V81ZM50.461 46.2527V45.4381H49.6464V46.2527H50.461ZM58.8137 46.2527H59.6283V45.4381H58.8137V46.2527ZM58.8137 80.1854H50.461V81.8146H58.8137V80.1854ZM51.2756 81V46.2527H49.6464V81H51.2756ZM50.461 47.0672H58.8137V45.4381H50.461V47.0672ZM57.9991 46.2527V81H59.6283V46.2527H57.9991ZM75.6385 46.2527L76.4141 46.0038L76.2326 45.4381H75.6385V46.2527ZM83.3946 70.4278L82.6189 70.6767L83.3958 73.098L84.1704 70.676L83.3946 70.4278ZM91.1268 46.2527V45.4381H90.5321L90.3509 46.0045L91.1268 46.2527ZM102.152 46.2527H102.967V45.4381H102.152V46.2527ZM102.152 81V81.8146H102.967V81H102.152ZM93.7519 81H92.9374V81.8146H93.7519V81ZM93.7519 72.8859L92.9383 72.8462L92.9374 72.866V72.8859H93.7519ZM94.5634 56.2759L95.377 56.3157L93.7921 56.0139L94.5634 56.2759ZM86.1629 81V81.8146H86.7465L86.9342 81.2621L86.1629 81ZM80.6262 81L79.8551 81.2625L80.043 81.8146H80.6262V81ZM72.2019 56.2521L72.9731 55.9896L71.3883 56.2918L72.2019 56.2521ZM73.0133 72.8859H73.8279V72.8661L73.8269 72.8462L73.0133 72.8859ZM73.0133 81V81.8146H73.8279V81H73.0133ZM64.6367 81H63.8221V81.8146H64.6367V81ZM64.6367 46.2527V45.4381H63.8221V46.2527H64.6367ZM74.8628 46.5015L82.6189 70.6767L84.1702 70.179L76.4141 46.0038L74.8628 46.5015ZM84.1704 70.676L91.9027 46.5008L90.3509 46.0045L82.6187 70.1797L84.1704 70.676ZM91.1268 47.0672H102.152V45.4381H91.1268V47.0672ZM101.338 46.2527V81H102.967V46.2527H101.338ZM102.152 80.1854H93.7519V81.8146H102.152V80.1854ZM94.5665 81V72.8859H92.9374V81H94.5665ZM94.5656 72.9257L95.377 56.3157L93.7497 56.2362L92.9383 72.8462L94.5656 72.9257ZM93.7921 56.0139L85.3916 80.7379L86.9342 81.2621L95.3346 56.538L93.7921 56.0139ZM86.1629 80.1854H80.6262V81.8146H86.1629V80.1854ZM81.3974 80.7375L72.9731 55.9896L71.4308 56.5146L79.8551 81.2625L81.3974 80.7375ZM71.3883 56.2918L72.1997 72.9256L73.8269 72.8462L73.0155 56.2124L71.3883 56.2918ZM72.1987 72.8859V81H73.8279V72.8859H72.1987ZM73.0133 80.1854H64.6367V81.8146H73.0133V80.1854ZM65.4513 81V46.2527H63.8221V81H65.4513ZM64.6367 47.0672H75.6385V45.4381H64.6367V47.0672Z" fill="white"/>
<path d="M118.327 66.8481V81H115.391V46.2527H127.228C130.84 46.2527 133.688 47.1754 135.772 49.021C137.872 50.8665 138.922 53.4042 138.922 56.6339C138.922 59.8954 137.912 62.4172 135.891 64.1991C133.886 65.9651 130.975 66.8481 127.157 66.8481H118.327ZM118.327 64.3661H127.228C130.076 64.3661 132.248 63.69 133.743 62.3376C135.239 60.9853 135.987 59.0999 135.987 56.6816C135.987 54.2792 135.239 52.37 133.743 50.9541C132.264 49.5222 130.156 48.7903 127.419 48.7585H118.327V64.3661ZM164.696 64.3423H148.444V78.518H167.13V81H145.509V46.2527H167.011V48.7585H148.444V61.8603H164.696V64.3423ZM197.391 48.7585H185.482V81H182.547V48.7585H170.662V46.2527H197.391V48.7585ZM216.006 66.5379H205.911V81H202.952V46.2527H214.24C217.947 46.2527 220.842 47.1516 222.927 48.9494C225.011 50.7472 226.053 53.261 226.053 56.4907C226.053 58.7181 225.401 60.683 224.096 62.3854C222.791 64.0877 221.041 65.2651 218.846 65.9174L227.532 80.6898V81H224.406L216.006 66.5379ZM205.911 64.032H214.908C217.374 64.032 219.355 63.332 220.85 61.9319C222.346 60.5318 223.094 58.7181 223.094 56.4907C223.094 54.0406 222.314 52.1393 220.755 50.787C219.196 49.4346 217.008 48.7585 214.192 48.7585H205.911V64.032ZM252.805 71.2631H237.031L233.451 81H230.372L243.522 46.2527H246.314L259.464 81H256.409L252.805 71.2631ZM237.938 68.7573H251.875L244.906 49.8324L237.938 68.7573ZM284.259 72.4564C284.259 70.5312 283.583 69.0118 282.231 67.8982C280.879 66.7685 278.405 65.7026 274.809 64.7003C271.213 63.682 268.588 62.5763 266.933 61.383C264.579 59.6966 263.401 57.4851 263.401 54.7486C263.401 52.0916 264.491 49.9358 266.671 48.2812C268.867 46.6106 271.667 45.7754 275.071 45.7754C277.378 45.7754 279.439 46.2208 281.252 47.1118C283.082 48.0028 284.498 49.2437 285.5 50.8347C286.503 52.4257 287.004 54.1997 287.004 56.1566H284.045C284.045 53.786 283.233 51.8848 281.61 50.4529C279.988 49.0051 277.808 48.2812 275.071 48.2812C272.414 48.2812 270.298 48.8778 268.723 50.071C267.148 51.2484 266.361 52.7916 266.361 54.7008C266.361 56.4668 267.069 57.9067 268.485 59.0204C269.901 60.1341 272.168 61.1205 275.286 61.9796C278.405 62.8229 280.767 63.7059 282.374 64.6287C283.981 65.5355 285.19 66.6254 286.002 67.8982C286.813 69.1709 287.219 70.6744 287.219 72.4086C287.219 75.1451 286.121 77.3407 283.925 78.9953C281.746 80.65 278.866 81.4773 275.286 81.4773C272.836 81.4773 270.585 81.0398 268.532 80.1647C266.496 79.2897 264.945 78.0646 263.879 76.4895C262.829 74.9144 262.304 73.1087 262.304 71.0722H265.239C265.239 73.5223 266.154 75.4554 267.984 76.8714C269.813 78.2874 272.247 78.9953 275.286 78.9953C277.991 78.9953 280.163 78.3987 281.801 77.2055C283.44 76.0122 284.259 74.4292 284.259 72.4564Z" fill="white"/>
</svg>
